TITLE ""
FILE "Step4_Track14.mp3" MP3
  TRACK 01 AUDIO
    TITLE "Step4_Track14_01"
    INDEX 01 00:00:00
  TRACK 02 AUDIO
    TITLE "Step4_Track14_02"
    INDEX 01 00:00:22
  TRACK 03 AUDIO
    TITLE "Step4_Track14_03"
    INDEX 01 00:01:69
  TRACK 04 AUDIO
    TITLE "Step4_Track14_04"
    INDEX 01 00:02:48
  TRACK 05 AUDIO
    TITLE "Step4_Track14_05"
    INDEX 01 00:03:46
  TRACK 06 AUDIO
    TITLE "Step4_Track14_06"
    INDEX 01 00:03:54
  TRACK 07 AUDIO
    TITLE "Step4_Track14_07"
    INDEX 01 00:05:19
  TRACK 08 AUDIO
    TITLE "Step4_Track14_08"
    INDEX 01 00:05:39
  TRACK 09 AUDIO
    TITLE "Step4_Track14_09"
    INDEX 01 00:06:32
  TRACK 10 AUDIO
    TITLE "Step4_Track14_10"
    INDEX 01 00:06:34
  TRACK 11 AUDIO
    TITLE "Step4_Track14_11"
    INDEX 01 00:08:08
  TRACK 12 AUDIO
    TITLE "Step4_Track14_12"
    INDEX 01 00:08:27
  TRACK 13 AUDIO
    TITLE "Step4_Track14_13"
    INDEX 01 00:09:25
  TRACK 14 AUDIO
    TITLE "Step4_Track14_14"
    INDEX 01 00:09:27
  TRACK 15 AUDIO
    TITLE "Step4_Track14_15"
    INDEX 01 00:11:18
  TRACK 16 AUDIO
    TITLE "Step4_Track14_16"
    INDEX 01 00:11:34
  TRACK 17 AUDIO
    TITLE "Step4_Track14_17"
    INDEX 01 00:12:31
  TRACK 18 AUDIO
    TITLE "Step4_Track14_18"
    INDEX 01 00:12:37
  TRACK 19 AUDIO
    TITLE "Step4_Track14_19"
    INDEX 01 00:14:67
  TRACK 20 AUDIO
    TITLE "Step4_Track14_20"
    INDEX 01 00:15:16
  TRACK 21 AUDIO
    TITLE "Step4_Track14_21"
    INDEX 01 00:16:09
  TRACK 22 AUDIO
    TITLE "Step4_Track14_22"
    INDEX 01 00:16:33
  TRACK 23 AUDIO
    TITLE "Step4_Track14_23"
    INDEX 01 00:17:60
  TRACK 24 AUDIO
    TITLE "Step4_Track14_24"
    INDEX 01 00:18:12
  TRACK 25 AUDIO
    TITLE "Step4_Track14_25"
    INDEX 01 00:19:10
  TRACK 26 AUDIO
    TITLE "Step4_Track14_26"
    INDEX 01 00:19:12
  TRACK 27 AUDIO
    TITLE "Step4_Track14_27"
    INDEX 01 00:20:33
  TRACK 28 AUDIO
    TITLE "Step4_Track14_28"
    INDEX 01 00:20:60
  TRACK 29 AUDIO
    TITLE "Step4_Track14_29"
    INDEX 01 00:21:63
  TRACK 30 AUDIO
    TITLE "Step4_Track14_30"
    INDEX 01 00:21:67
  TRACK 31 AUDIO
    TITLE "Step4_Track14_31"
    INDEX 01 00:23:41
  TRACK 32 AUDIO
    TITLE "Step4_Track14_32"
    INDEX 01 00:23:60
  TRACK 33 AUDIO
    TITLE "Step4_Track14_33"
    INDEX 01 00:24:42
  TRACK 34 AUDIO
    TITLE "Step4_Track14_34"
    INDEX 01 00:24:62
  TRACK 35 AUDIO
    TITLE "Step4_Track14_35"
    INDEX 01 00:26:41
  TRACK 36 AUDIO
    TITLE "Step4_Track14_36"
    INDEX 01 00:26:59
  TRACK 37 AUDIO
    TITLE "Step4_Track14_37"
    INDEX 01 00:27:62
  TRACK 38 AUDIO
    TITLE "Step4_Track14_38"
    INDEX 01 00:27:70
  TRACK 39 AUDIO
    TITLE "Step4_Track14_39"
    INDEX 01 00:29:69
  TRACK 40 AUDIO
    TITLE "Step4_Track14_40"
    INDEX 01 00:30:11
  TRACK 41 AUDIO
    TITLE "Step4_Track14_41"
    INDEX 01 00:31:07
  TRACK 42 AUDIO
    TITLE "Step4_Track14_42"
    INDEX 01 00:31:15
  TRACK 43 AUDIO
    TITLE "Step4_Track14_43"
    INDEX 01 00:33:25
